<?xml version="1.0" encoding="utf-8"?>
<!-- Generator: Adobe Illustrator 23.0.3, SVG Export Plug-In . SVG Version: 6.00 Build 0)  -->
<svg version="1.1" id="Layer_1" xmlns="http://www.w3.org/2000/svg" xmlns:xlink="http://www.w3.org/1999/xlink" x="0px" y="0px"
	 viewBox="0 0 168.72 200.64" style="enable-background:new 0 0 168.72 200.64;" xml:space="preserve">
<style type="text/css">
	.st2{fill:#ECECEC;}
	.st3{fill:#4D5353;}
	.st4{fill:#EF8843;}
</style>
<g>
	<g>
		<path class="st3" d="M168,47.92c0.08,1.52-0.2,3.06,0.19,4.57c-0.21,0.31-0.25,0.65-0.27,1.01c-0.63,11.5-4.82,21.69-11.52,30.93
			c-4.13,5.69-8.92,10.77-14.21,15.4c-0.94,0.82-1.36,2.6-0.85,3.72c0.43,0.95,2.62,1.4,3.64,0.6c1.17-0.92,2.5-0.92,3.9-0.96
			c-5.14,3.48-10.3,6.91-14.22,12.05c-0.58-1.57-1.07-2.99-1.63-4.38c-0.91-2.26-1.83-4.52-2.79-6.76
			c-0.71-1.64-2.26-2.26-3.79-1.58c-0.95,0.42-1.33,2.14-0.68,3.56c1.08,2.37,2.06,4.77,3,7.2c2.2,5.7,3.76,11.57,4.28,17.66
			c0.66,7.74-2.09,14.01-8.47,18.59c-7.04,5.05-15.05,7.62-23.39,9.52c-10.7,2.44-21.37,1.86-32.05-0.02
			c-10.6-1.86-20.98-4.48-30.61-9.42c-7.71-3.96-14.14-9.35-18.14-17.22c-4.99-9.83-4.58-19.66,0.29-29.4
			c1.3-2.61,2.72-5.16,4.64-7.4c0.86-1,0.75-2.3,0.3-3.42c-0.49-1.23-3.11-1.15-4.05,0c-1.86,2.27-3.27,4.82-4.68,7.38
			c-0.11,0.21-0.24,0.41-0.42,0.73c-2.71-3.6-5.46-7.04-8.77-10.31c1.62,0.01,2.84,0.77,4.21,0.68c0.85-0.06,1.74-0.09,1.93-1.03
			c0.21-1.02,0.59-2.32-0.43-3.04C5.9,81.28,3.53,73.31,1.95,64.91c-0.46-2.44-0.52-4.93-0.76-7.39c0-2.16,0-4.32-0.01-6.48
			C1.92,40.36,4.2,30,7.71,19.9C9.63,14.38,11.89,9,14.59,3.81c0.2-0.38,0.41-0.76,0.68-1.23c4.53,9.07,10.83,16.79,17.01,24.6
			c4.67,5.91,8.51,12.3,10.8,19.53c0.68,2.14,1.29,4.29,1.33,6.56c0.01,0.66,0.34,1.12,0.92,1.43c1.35,0.72,3.14,0.4,4.17-0.74
			c0.13-0.15,0.3-0.26,0.46-0.38c2.59-1.93,7.63-3.84,11.23-4.19c-1.27,0.85-2.33,1.63-3.36,2.47c-1.22,0.99-1.41,2.27-1.21,3.67
			c0.14,1.01,0.91,1.41,1.82,1.66c4.27,1.17,9.1,4.16,12,7.44c-1.82,0.57-3.5,1.35-5.07,2.33c-1.28,0.8-1.65,3.19-0.52,4.17
			c1.15,1,1.57,2.27,1.85,3.66c0.34,1.67,0.89,2,3,1.79c1.16-0.11,1.52-0.66,1.52-2.25c0.01-1.3-0.31-2.54-0.74-3.74
			c-0.16-0.44-0.2-0.73,0.32-0.93c1.38-0.53,2.73-1.15,4.26-1.15c0.88,0,1.92,0.17,2.27-0.88c0.35-1.05,0.48-2.21-0.3-3.2
			c-3.49-4.44-7.69-8-12.87-10.34c-0.14-0.06-0.28-0.14-0.63-0.32c4.12-1.78,8.12-3.03,12.49-1.82c0.79,0.22,1.59,0.19,2.38,0.1
			c0.77-0.09,1.2-0.63,1.23-1.4c0.03-0.87-0.02-1.7-0.32-2.58c-0.76-2.23-0.34-4.5,0.14-6.74c0.11-0.49,0.34-0.45,0.66-0.16
			c5.54,5.02,12.5,7.15,19.35,9.47c3.04,1.03,6.02,2.12,8.81,3.74c1.53,0.89,3.59,0.34,4.82-1.42c9.31-13.24,20.63-24.51,33.5-34.25
			c3.68-2.79,7.73-4.97,12.09-6.55c0.9-0.33,1.18-0.24,1.29,0.8c0.23,2.2,0.95,4.29,1.66,6.37C164.81,28.61,167.22,38.08,168,47.92z
			 M56.45,95.18c0.06-2.72-0.39-5.29-1.67-7.68c-1.01-1.88-2.48-3.27-4.59-3.76c-2.33-0.54-4.72-0.63-6.98,0.2
			c-8.25,3.03-13.72,8.88-16.72,17.04c-1.72,4.68-2.14,9.53-0.74,14.37c1.4,4.87,5.3,7.63,10.33,7.69c3.48,0.05,6.43-1.23,8.94-3.49
			C52.23,113.03,55.79,104.77,56.45,95.18z M114.12,107.28c-0.06-1.36-0.07-2.72-0.2-4.07c-0.38-3.98-1.29-7.77-3.78-11.08
			c-3.48-4.64-9.19-4.37-12.79-2.2c-1.66,1.01-3.01,2.37-4.21,3.88c-5.3,6.7-7.09,14.37-6.13,22.76c0.4,3.51,1.5,6.76,3.6,9.66
			c4.1,5.68,13.52,6.43,18.14,0.22c1.45-1.94,2.56-4.05,3.36-6.33C113.57,115.98,114.13,111.68,114.12,107.28z M70.79,139.93
			c5.41,0.21,7.38-4.01,6.93-8.18c-0.08-0.73-0.44-1.39-1.22-1.64c-2.13-0.69-3.31,0.14-3.37,2.36c-0.01,0.24,0.01,0.49-0.06,0.71
			c-0.29,1.08-0.89,1.97-2.04,2.12c-1.03,0.13-1.8-0.51-2.32-1.4c-0.97-1.68-3.31-1.85-4.43-0.27c-0.76,1.07-1.69,1.91-2.91,2.42
			c-1.36,0.56-2.76-0.52-2.51-1.96c0.09-0.52,0.11-1.03,0.11-1.55c0-1.37-0.41-1.91-1.51-2.02c-1.98-0.2-2.67,0.13-3.01,1.54
			c-0.35,1.42-0.33,2.86-0.09,4.29c0.44,2.57,2.33,4.25,4.93,4.47c2.38,0.21,4.64-0.13,6.59-1.64c0.37-0.29,0.65-0.33,1.06-0.09
			C68.17,139.77,69.51,139.99,70.79,139.93z"/>
		<path class="st4" d="M39.6,199.86c-0.84-0.09-1.62-0.27-2.31-0.86c-11.51-9.73-19.19-21.85-22.78-36.51
			c-1.22-5-1.52-10.03-0.13-15.07c0.5-1.81,0.47-1.82,1.91-0.71c17.24,13.32,36.75,20.87,58.45,22.59
			c10.9,0.86,21.74,0.18,32.33-2.84c2.66-0.76,5.25-1.7,7.82-2.7c0.36-0.14,0.73-0.26,1.31-0.47c-1.12,2.7-2.49,5.01-4.14,7.16
			c-3.86,5.02-8.78,8.84-14.09,12.16c-15.11,9.43-31.58,14.95-49.27,16.89c-1.59,0.17-3.19,0.23-4.78,0.35
			C42.48,199.86,41.04,199.86,39.6,199.86z"/>
		<path class="st4" d="M126.77,163.82c-0.66,5.78-2.74,11.03-5.68,15.95c-4.03,6.75-9.02,12.6-15.95,16.57
			c-0.69,0.4-1.44,0.69-2.16,1.03c-2.41,1.14-4.51,0.77-6.45-1.12c-1.59-1.55-1.67-1.48,0.29-2.54
			c8.76-4.77,16.54-10.75,22.86-18.53c2.58-3.18,4.66-6.68,6.55-10.31C126.41,164.51,126.59,164.17,126.77,163.82z"/>
		<path class="st2" d="M51.85,95.51c-0.19,3.24-1.24,6.61-2.7,9.85c-1.71,3.77-3.95,7.2-7.04,10.01c-1.31,1.19-2.75,2.13-4.42,2.78
			c-1.65,0.63-3.09,0.26-4.39-0.67c-3.11-2.22-4.06-5.46-3.71-9.06c0.44-4.46,2.21-8.49,4.98-11.98c3.06-3.85,6.67-7.05,11.64-8.28
			c1.7-0.42,3.28,0.23,4.18,1.77C51.33,91.54,51.88,93.27,51.85,95.51z"/>
		<path class="st2" d="M99.67,126.19c-2.02-0.32-3.81-1.38-5.14-3.21c-2.01-2.76-2.94-5.86-3.1-9.25
			c-0.33-7.13,2.28-13.1,7.04-18.25c0.52-0.57,1.17-0.95,1.81-1.36c2.4-1.58,4.04-1.22,5.82,1.08c2.35,3.04,3.09,6.53,3.37,10.25
			c0.31,4.23-0.38,8.3-1.68,12.28c-0.88,2.69-2.24,5.11-4.45,6.96C102.35,125.52,101.25,126.16,99.67,126.19z"/>
	</g>
</g>
</svg>
